<svg width="26" height="26" viewBox="0 0 26 26" fill="none" xmlns="http://www.w3.org/2000/svg">
<path id="Vector" d="M13.3683 0.409912C13.2082 0.409912 13.048 0.535971 12.952 0.693544L9.94136 6.3977C9.8773 6.55527 9.71716 6.68133 9.525 6.68133H5.0091C2.3508 6.68133 0.204948 8.79281 0.204948 11.4085V25.3065C0.204948 25.4641 0.333059 25.5901 0.493197 25.5901H25.5068C25.6669 25.5901 25.7951 25.4641 25.7951 25.3065V6.99647C25.7951 6.80739 25.6669 6.71284 25.5068 6.71284H22.9126C22.7524 6.71284 22.5923 6.58678 22.4962 6.42921L19.4856 0.725059C19.3895 0.567485 19.2614 0.441427 19.0692 0.441427H13.2722L13.3683 0.409912ZM5.07315 9.86431C5.96993 9.86431 6.67454 10.5576 6.67454 11.44C6.67454 12.3225 5.96993 13.0158 5.07315 13.0158C4.17638 13.0158 3.47177 12.3225 3.47177 11.44C3.47177 10.5576 4.17638 9.86431 5.07315 9.86431ZM16.2828 9.86431C19.8059 9.86431 22.6884 12.7006 22.6884 16.1672C22.6884 19.6339 19.8059 22.4702 16.2828 22.4702C12.7598 22.4702 9.8773 19.6339 9.8773 16.1672C9.8773 12.7006 12.7598 9.86431 16.2828 9.86431ZM16.2828 13.0158C14.5213 13.0158 13.0801 14.4339 13.0801 16.1672C13.0801 17.9005 14.5213 19.3187 16.2828 19.3187C18.0444 19.3187 19.4856 17.9005 19.4856 16.1672C19.4856 14.4339 18.0444 13.0158 16.2828 13.0158Z" fill="#98BEFD"/>
</svg>
