<svg width="55" height="54" viewBox="0 0 55 54" fill="none" xmlns="http://www.w3.org/2000/svg">
<g id="&#240;&#159;&#166;&#134; icon &#34;map&#34;">
<path id="Vector" d="M0 0.0674147V49.9992C0 52.2083 1.79086 53.9992 4 53.9992H49.9318C52.1409 53.9992 53.9318 52.2083 53.9318 49.9992V38.3999C53.9318 38.1039 53.9743 37.8096 54.0008 37.5147C54.0189 37.3139 54.0189 37.1119 54.0008 36.9111C53.9743 36.6162 53.9318 36.3219 53.9318 36.0259V4C53.9318 1.79086 52.1409 0 49.9318 0H0.067413C0.0301809 0 0 0.0301826 0 0.0674147ZM6.74147 10.8089C6.74147 8.59974 8.53233 6.80888 10.7415 6.80888H43.1903C45.3994 6.80888 47.1903 8.59974 47.1903 10.8089V29.7748C47.1903 31.9839 45.3994 33.7748 43.1903 33.7748H37.0781C36.8762 33.7565 36.6732 33.7565 36.4713 33.7748C35.5774 33.8552 34.752 34.2875 34.1767 34.9765C33.6015 35.6656 33.3235 36.5549 33.404 37.4489C33.4844 38.3428 33.9167 39.1682 34.6058 39.7435C35.2948 40.3187 36.1841 40.5967 37.0781 40.5162H43.8195C45.6812 40.5162 47.1903 42.0254 47.1903 43.887C47.1903 45.7486 45.6812 47.2577 43.8195 47.2577H10.7415C8.53233 47.2577 6.74147 45.4668 6.74147 43.2577V10.8089ZM23.5951 13.5504C17.9997 13.5504 13.4829 18.0671 13.4829 23.6626C13.4829 28.1217 17.9073 34.0557 20.9029 37.5625C22.3378 39.2422 24.8524 39.2422 26.2873 37.5625C29.283 34.0557 33.7073 28.1217 33.7073 23.6626C33.7073 18.0671 29.1906 13.5504 23.5951 13.5504ZM23.5951 20.2918C25.4828 20.2918 26.9659 21.7749 26.9659 23.6626C26.9659 25.5502 25.4828 27.0333 23.5951 27.0333C21.7075 27.0333 20.2244 25.5502 20.2244 23.6626C20.2244 21.7749 21.7075 20.2918 23.5951 20.2918Z" fill="#98BEFD"/>
</g>
</svg>
